<?xml version="1.0" encoding="iso-8859-1"?>
<!-- Generator: Adobe Illustrator 19.0.0, SVG Export Plug-In . SVG Version: 6.00 Build 0)  -->
<svg version="1.1" id="Layer_1" xmlns="http://www.w3.org/2000/svg" xmlns:xlink="http://www.w3.org/1999/xlink" x="0px" y="0px"
	 viewBox="0 0 512 512" style="enable-background:new 0 0 512 512;" xml:space="preserve">
<path style="fill:#FFCA4F;" d="M256.001,512C397,512,512,397.001,512,256.001C512,115,397,0,256.001,0C115.001,0,0,115,0,256.001
	C0,397.001,115.001,512,256.001,512z"/>
<path style="fill:#20D0C2;" d="M146.447,100.32h255.168l57.901,263.754l-21.206,0.114l-0.508,93.121l21.856,0.114l-0.143,15.561
	H114.584c-32.646-2.614-29.734-62.494-31.48-78.522l29.062-268.12C112.278,114.427,124.292,100.32,146.447,100.32L146.447,100.32z"
	/>
<path style="fill:#FF5B61;" d="M146.447,100.32h24.438l-22.243,372.664l-38.143-1.097c-31.896-1.253-36.66-77.503-26.013-105.148
	l27.681-240.398C112.279,114.427,124.294,100.32,146.447,100.32L146.447,100.32z"/>
<path style="fill:#FFFFFF;" d="M119.026,364.045h333.877c-15.15,31.942-14.757,63.443,0,94.526H119.026
	C83.211,458.572,83.216,364.045,119.026,364.045z"/>
<path style="fill:#ECF0F1;" d="M94.749,390.031h349.218c-0.204,0.946-0.392,1.893-0.568,2.837H94.078
	C94.287,391.911,94.507,390.962,94.749,390.031L94.749,390.031z M442.333,399.975L442.333,399.975
	c-0.11,0.946-0.204,1.892-0.284,2.837H92.555c0.086-0.951,0.194-1.898,0.314-2.837H442.333z M441.699,409.919L441.699,409.919
	c-0.014,0.946-0.014,1.891,0,2.837H92.184c-0.014-0.946-0.014-1.891,0-2.837H441.699z M442.054,419.861L442.054,419.861
	c0.083,0.949,0.176,1.893,0.284,2.838H92.874c-0.119-0.941-0.224-1.888-0.311-2.838H442.054z M443.405,429.805L443.405,429.805
	c0.174,0.944,0.364,1.891,0.568,2.837H94.763c-0.246-0.934-0.466-1.88-0.674-2.837H443.405z M445.748,439.746L445.748,439.746
	c0.269,0.946,0.553,1.893,0.851,2.837H98.294c-0.428-0.916-0.838-1.865-1.22-2.837H445.748L445.748,439.746z M449.083,449.69
	L449.083,449.69c0.366,0.946,0.745,1.893,1.136,2.837H105.024c-0.872-0.866-1.699-1.816-2.484-2.837H449.083z"/>
<path style="fill:#FF5B61;" d="M134.059,412.959h52.174V512l-26.304-32.31L134.059,512L134.059,412.959L134.059,412.959z"/>
<path style="fill:#DFE1E3;" d="M153.961,383.864H422.87h15.333h7.269c1.809-6.567,4.271-13.148,7.401-19.753
	c0.008-0.021,0.02-0.044,0.032-0.065H429.04H155.145h-36.121c-33.139,0-35.615,80.947-7.417,93.027
	c-9.549-27.879-1.921-73.209,22.878-73.209L153.961,383.864L153.961,383.864z"/>
<g>
	<path style="fill:#ECF0F1;" d="M250.233,314.794h100.579v-7.213H250.233V314.794z"/>
	<path style="fill:#ECF0F1;" d="M258.329,328.435h84.389v-5.401h-84.389V328.435z"/>
</g>
<g>
</g>
<g>
</g>
<g>
</g>
<g>
</g>
<g>
</g>
<g>
</g>
<g>
</g>
<g>
</g>
<g>
</g>
<g>
</g>
<g>
</g>
<g>
</g>
<g>
</g>
<g>
</g>
<g>
</g>
</svg>
