
<svg width="50px" height="50px" viewBox="0 0 50 50" version="1.1" xmlns="http://www.w3.org/2000/svg" xmlns:xlink="http://www.w3.org/1999/xlink">
    <!-- Generator: Sketch 51.2 (57519) - http://www.bohemiancoding.com/sketch -->
    <desc>Created with Sketch.</desc>
    <defs></defs>
    <g id="Page-1" stroke="none" stroke-width="1" fill="none" fill-rule="evenodd">
        <g id="h3">
            <circle id="Oval" fill="#FFB72B" fill-rule="nonzero" cx="25" cy="25" r="25"></circle>
            <g id="Oval" transform="translate(6.811659, 5.914798)" stroke="#FFFFFF">
                <circle cx="18.3236431" cy="18.4759548" r="17.896629"></circle>
            </g>
            <g id="Shape" transform="translate(13.000000, 12.000000)" fill-rule="nonzero">
                <path d="M2.18036139,23.6174342 C2.24296252,23.6174342 2.9107079,22.6259784 2.93157494,22.562694 C3.68278849,21.0438681 4.41313499,19.5250422 5.16434854,18.0273111 C5.74862574,16.846002 6.3120359,15.664693 6.8963131,14.4622891 C6.97978127,14.2935307 7.08411649,14.1247723 7.1884517,13.9771086 C7.45972326,13.618497 7.81446299,13.4708333 8.27353794,13.4708333 C11.4661955,13.4708333 14.6797201,13.4708333 17.8723777,13.4708333 C18.1436493,13.4708333 19.458273,13.4708333 19.5208741,13.4708333 C20.939833,13.4708333 22.3379249,13.4708333 23.7568838,13.4708333 C24.0490224,13.4708333 24.341161,13.5130229 24.5080974,13.7872554 C24.5706985,13.8716346 24.6124326,13.9560138 24.6541667,14.040393 C24.6541667,14.1669619 24.6541667,14.2724359 24.6541667,14.3990047 C24.5706985,14.588858 24.4872303,14.7787112 24.4037622,14.9685644 C23.6525486,16.4030111 22.9013351,17.8585526 22.1292545,19.2929993 C21.5032432,20.516498 20.8563648,21.7189018 20.2303536,22.9424005 C19.8964809,23.5541498 19.3956718,23.8916667 18.6861924,23.8916667 C14.8675235,23.8916667 11.0697217,23.8916667 7.25105283,23.8916667 C5.39388601,23.8916667 3.53671918,23.8916667 1.67955236,23.8916667 C1.19961037,23.8705719 1.97169096,23.6174342 2.18036139,23.6174342 Z" fill="#FFFFFF"></path>
                <path d="M0.020801364,22.5343643 C0.10400682,22.7230241 0.187212276,22.932646 0.291219096,23.1003436 C0.582438193,23.5195876 0.998465473,23.666323 1.49769821,23.666323 C3.34901961,23.666323 5.20034101,23.666323 7.0516624,23.666323 C10.858312,23.666323 14.6441603,23.666323 18.4508099,23.666323 C19.1580563,23.666323 19.657289,23.3309278 19.9901108,22.7230241 C20.6349531,21.5281787 21.258994,20.3123711 21.883035,19.0965636 C22.6318841,17.671134 23.3807332,16.2247423 24.1503836,14.7993127 C24.2543905,14.6106529 24.3167945,14.4219931 24.4,14.2333333 C24.4,17.6292096 24.4,21.0041237 24.4,24.4 C16.2666667,24.4 8.13333333,24.4 0,24.4 C0.020801364,23.7920962 0.020801364,23.1632302 0.020801364,22.5343643 Z" fill="#FFB72B"></path>
                <path d="M17.7916667,11.9127448 C17.4768731,11.9127448 17.1830657,11.9127448 16.8472859,11.9127448 C16.8472859,11.8087942 16.8472859,11.7256336 16.8472859,11.6424731 C16.8472859,9.29318836 16.8472859,6.94390361 16.8472859,4.59461886 C16.8472859,4.22039651 16.8053135,4.17881624 16.4275612,4.17881624 C15.7769878,4.17881624 15.1264144,4.17881624 14.475841,4.17881624 C14.03513,4.17881624 13.8672401,3.99170507 13.8672401,3.55511233 C13.8672401,2.80666763 13.8672401,2.07901306 13.8672401,1.33056836 C13.8672401,1.0187164 13.8042813,0.956346006 13.4894878,0.956346006 C10.782263,0.956346006 8.07503823,0.956346006 5.34682722,0.956346006 C5.05301988,0.956346006 5.03203364,0.997926267 5.03203364,1.30977823 C5.03203364,6.29940956 5.03203364,11.2682508 5.03203364,16.2578821 C5.03203364,16.4242031 4.99006116,16.6113143 4.92710245,16.7568452 C4.7382263,17.1726478 4.52836391,17.5884505 4.27652905,18.0458333 C4.1925841,17.9210925 4.12962538,17.837932 4.10863914,17.7547715 C4.08765291,17.6508209 4.06666667,17.5468702 4.06666667,17.4221294 C4.06666667,12.0374856 4.06666667,6.65284178 4.06666667,1.2889881 C4.06666667,0.457382873 4.52836391,0 5.34682722,0 C8.28490061,0 11.2019878,0 14.1400612,0 C14.4338685,0 14.6647171,0.103950653 14.8535933,0.311851959 C15.7560015,1.2889881 16.6584098,2.26612423 17.5818043,3.24326037 C17.7077217,3.38879128 17.7916667,3.55511233 17.7916667,3.7422235 C17.7916667,6.40336022 17.7916667,9.08528706 17.7916667,11.7464238 C17.7916667,11.8087942 17.7916667,11.8503744 17.7916667,11.9127448 Z M16.2596713,3.22247024 C15.7769878,2.70271697 15.3362768,2.22454397 14.8535933,1.72558084 C14.8535933,2.26612423 14.8535933,2.74429724 14.8535933,3.22247024 C15.2943043,3.22247024 15.7560015,3.22247024 16.2596713,3.22247024 Z" fill="#FFFFFF"></path>
                <path d="M10.7874841,5.08333333 C12.2256947,5.08333333 13.6430617,5.08333333 15.0812723,5.08333333 C15.2897086,5.08333333 15.4773013,5.12872024 15.6023631,5.31026786 C15.7482685,5.49181548 15.8107994,5.69605655 15.7065812,5.92299107 C15.6023631,6.17261905 15.435614,6.30877976 15.1854904,6.35416667 C15.1229596,6.35416667 15.0604287,6.35416667 15.0187414,6.35416667 C12.2048511,6.35416667 9.37011713,6.35416667 6.55622682,6.35416667 C6.41032139,6.35416667 6.24357234,6.30877976 6.11851055,6.2406994 C5.86838696,6.08184524 5.80585607,5.83221726 5.86838696,5.53720238 C5.93091786,5.26488095 6.13935418,5.08333333 6.41032139,5.08333333 C6.88972493,5.08333333 7.36912846,5.08333333 7.82768837,5.08333333 C8.8281827,5.08333333 9.8078334,5.08333333 10.7874841,5.08333333 Z" fill="#FFFFFF"></path>
                <path d="M10.8006469,9.9125 C9.38177286,9.9125 7.96289885,9.9125 6.54402484,9.9125 C6.31450111,9.9125 6.12670896,9.8671131 5.9806484,9.66287202 C5.68852728,9.27708333 5.89718522,8.70974702 6.35623269,8.64166667 C6.41883008,8.64166667 6.48142746,8.64166667 6.54402484,8.64166667 C9.38177286,8.64166667 12.2195209,8.64166667 15.0572689,8.64166667 C15.2867926,8.64166667 15.4954506,8.68705357 15.6415111,8.9139881 C15.9127665,9.32247024 15.6832427,9.84441964 15.245061,9.88980655 C15.1615979,9.88980655 15.0781347,9.88980655 14.9946715,9.88980655 C13.5966633,9.9125 12.1986551,9.9125 10.8006469,9.9125 Z" fill="#FFFFFF"></path>
                <path d="M7.625,11.949442 C7.283604,12.1524304 7.00245435,12.4005273 6.80163317,12.7613955 C6.78155105,12.806504 6.76146893,12.8516126 6.74138681,12.8967211 C6.68114046,13.0094924 6.68114046,13.1899265 6.52048352,13.2124808 C6.29958022,13.2350351 6.11884116,13.1673723 5.97826633,12.9869382 C5.83769151,12.806504 5.81760939,12.5809614 5.87785574,12.377973 C5.95818422,12.1524304 6.11884116,11.9945505 6.31966234,11.9945505 C6.76146893,11.9268878 7.18319341,11.949442 7.625,11.949442 Z" fill="#FFFFFF"></path>
                <path d="M15.7583333,3.8125 C15.2120647,3.8125 14.7340796,3.8125 14.2333333,3.8125 C14.2333333,3.32534722 14.2333333,2.81701389 14.2333333,2.2875 C14.7340796,2.79583333 15.2120647,3.28298611 15.7583333,3.8125 Z" fill="#FFB72B"></path>
            </g>
            <path d="M32.2359897,23.2743236 L32.2359897,34.4579811 C32.2359897,35.0970472 31.7097,35.623337 31.0706338,35.623337 L16.1653559,35.623337 C15.5262898,35.623337 15,35.0970472 15,34.4579811 L15,22.1653559 C15,21.5262898 15.5262898,21 16.1653559,21 L17.2555276,21" id="Shape" stroke="#FFFFFF" stroke-linecap="round"></path>
        </g>
    </g>
</svg>