
<svg width="50px" height="50px" viewBox="0 0 50 50" version="1.1" xmlns="http://www.w3.org/2000/svg" xmlns:xlink="http://www.w3.org/1999/xlink">
    <!-- Generator: Sketch 51.2 (57519) - http://www.bohemiancoding.com/sketch -->
    <desc>Created with Sketch.</desc>
    <defs></defs>
    <g id="Page-1" stroke="none" stroke-width="1" fill="none" fill-rule="evenodd">
        <g id="import">
            <circle id="Oval" fill="#B6D217" fill-rule="nonzero" cx="24.8484848" cy="25.1515152" r="24.8484848"></circle>
            <g id="Oval" transform="translate(6.818182, 6.060606)" stroke="#FFFFFF">
                <circle cx="18.1818182" cy="18.3333333" r="17.8030303"></circle>
            </g>
            <g id="Group-2" transform="translate(15.909091, 15.909091)" stroke="#FFFFFF" stroke-width="2">
                <path d="M8.70175583,13.4813856 L3.14811973,8.05274989 C2.89336579,7.8067392 3.08018535,7.39672139 3.43684088,7.39672139 L5.11821694,7.39672139 C5.3390037,7.39672139 5.50883966,7.23271426 5.50883966,7.019505 L5.50883966,0.37721657 C5.50883966,0.164007311 5.69565923,1.89393939e-07 5.89946239,1.89393939e-07 L12.0135571,1.89393939e-07 C12.2343439,1.89393939e-07 12.4041798,0.164007311 12.4041798,0.37721657 L12.4041798,7.019505 C12.4041798,7.23271426 12.5740158,7.39672139 12.7948026,7.39672139 L14.5780802,7.39672139 C14.9347358,7.39672139 15.1045717,7.8067392 14.8668014,8.05274989 L9.24523091,13.4813856 C9.12634576,13.6453927 8.87159182,13.6453927 8.70175583,13.4813856 Z" id="Shape" transform="translate(9.003691, 6.802196) scale(-1, 1) rotate(-180.000000) translate(-9.003691, -6.802196) "></path>
                <path d="M17.9346773,12.1212121 L17.9346773,15.6473652 C17.9346773,16.4181987 17.2893006,17.0414258 16.4910715,17.0414258 L1.44360495,17.0414258 C0.645375913,17.0414258 -7.57575756e-07,16.4181987 -7.57575756e-07,15.6473652 L-7.57575756e-07,12.1212121" id="Shape" stroke-linecap="round" transform="translate(8.967338, 14.581319) scale(-1, 1) translate(-8.967338, -14.581319) "></path>
            </g>
        </g>
    </g>
</svg>