
<svg width="43px" height="43px" viewBox="0 0 43 43" version="1.1" xmlns="http://www.w3.org/2000/svg" xmlns:xlink="http://www.w3.org/1999/xlink">
    <!-- Generator: Sketch 51.2 (57519) - http://www.bohemiancoding.com/sketch -->
    <desc>Created with Sketch.</desc>
    <defs></defs>
    <g id="Page-1" stroke="none" stroke-width="1" fill="none" fill-rule="evenodd">
        <g id="c10" transform="translate(2.000000, 2.000000)" stroke="#D75DEF">
            <g id="Oval" stroke-width="4">
                <circle cx="19.4" cy="19.6" r="18.8"></circle>
            </g>
            <polyline id="Shape" stroke-width="3" stroke-linecap="round" stroke-linejoin="round" points="19.5 18.2 19.5 9.5 23.9 13.8"></polyline>
            <path d="M19.5,9.5 L15,13.7" id="Shape" stroke-width="3" stroke-linecap="round" stroke-linejoin="round"></path>
            <path d="M19.9,23 L19.2,23 C18.9,23 18.6,22.7 18.6,22.4 L18.6,21.8 C18.6,21.5 18.9,21.2 19.2,21.2 L19.9,21.2 C20.2,21.2 20.5,21.5 20.5,21.8 L20.5,22.4 C20.5,22.7 20.2,23 19.9,23 Z" id="Shape" stroke-width="2" fill="#D75DEF" fill-rule="nonzero"></path>
            <path d="M19.9,26.8 L19.2,26.8 C18.9,26.8 18.6,26.5 18.6,26.2 L18.6,25.6 C18.6,25.3 18.9,25 19.2,25 L19.9,25 C20.2,25 20.5,25.3 20.5,25.6 L20.5,26.2 C20.5,26.5 20.2,26.8 19.9,26.8 Z" id="Shape" stroke-width="2" fill="#D75DEF" fill-rule="nonzero"></path>
            <path d="M19.9,30.8 L19.2,30.8 C18.9,30.8 18.6,30.5 18.6,30.2 L18.6,29.6 C18.6,29.3 18.9,29 19.2,29 L19.9,29 C20.2,29 20.5,29.3 20.5,29.6 L20.5,30.2 C20.5,30.5 20.2,30.8 19.9,30.8 Z" id="Shape" stroke-width="2" fill="#D75DEF" fill-rule="nonzero"></path>
        </g>
    </g>
</svg>