
<svg width="50px" height="50px" viewBox="0 0 50 50" version="1.1" xmlns="http://www.w3.org/2000/svg" xmlns:xlink="http://www.w3.org/1999/xlink">
    <!-- Generator: Sketch 51.2 (57519) - http://www.bohemiancoding.com/sketch -->
    <desc>Created with Sketch.</desc>
    <defs></defs>
    <g id="Page-1" stroke="none" stroke-width="1" fill="none" fill-rule="evenodd">
        <g id="export">
            <circle id="Oval" fill="#2766B6" fill-rule="nonzero" cx="24.8484848" cy="25.1515152" r="24.8484848"></circle>
            <g id="Oval" transform="translate(6.818182, 6.060606)" stroke="#FFFFFF">
                <circle cx="18.1818182" cy="18.3333333" r="17.8030303"></circle>
            </g>
            <g id="Group-2" transform="translate(15.909091, 15.909091)" stroke="#FFFFFF" stroke-width="2">
                <path d="M8.70175583,13.4813854 L3.14811973,8.0527497 C2.89336579,7.80673902 3.08018535,7.3967212 3.43684088,7.3967212 L5.11821694,7.3967212 C5.3390037,7.3967212 5.50883966,7.23271407 5.50883966,7.01950481 L5.50883966,0.37721638 C5.50883966,0.164007122 5.69565923,0 5.89946239,0 L12.0135571,0 C12.2343439,0 12.4041798,0.164007122 12.4041798,0.37721638 L12.4041798,7.01950481 C12.4041798,7.23271407 12.5740158,7.3967212 12.7948026,7.3967212 L14.5780802,7.3967212 C14.9347358,7.3967212 15.1045717,7.80673902 14.8668014,8.0527497 L9.24523091,13.4813854 C9.12634576,13.6453925 8.87159182,13.6453925 8.70175583,13.4813854 Z" id="Shape"></path>
                <path d="M17.934678,12.1212121 L17.934678,15.6473652 C17.934678,16.4181987 17.2893014,17.0414258 16.4910723,17.0414258 L1.44360571,17.0414258 C0.64537667,17.0414258 0,16.4181987 0,15.6473652 L0,12.1212121" id="Shape" stroke-linecap="round"></path>
            </g>
        </g>
    </g>
</svg>