
<svg width="50px" height="50px" viewBox="0 0 50 50" version="1.1" xmlns="http://www.w3.org/2000/svg" xmlns:xlink="http://www.w3.org/1999/xlink">
    <!-- Generator: Sketch 51.2 (57519) - http://www.bohemiancoding.com/sketch -->
    <desc>Created with Sketch.</desc>
    <defs></defs>
    <g id="Page-1" stroke="none" stroke-width="1" fill="none" fill-rule="evenodd">
        <g id="newfile">
            <circle id="Oval" fill="#FE6E2A" fill-rule="nonzero" cx="25" cy="25" r="25"></circle>
            <g id="Oval" transform="translate(6.811659, 5.914798)" stroke="#FFFFFF">
                <circle cx="18.3236431" cy="18.4759548" r="17.896629"></circle>
            </g>
            <g id="file" transform="translate(16.000000, 12.000000)">
                <path d="M0.962129513,25 L17.0378705,25 C17.5684849,25 18,24.5456479 18,23.9869519 L18,5.92683767 C18,5.49983791 17.7787102,4.98622255 17.4741962,4.70560823 L12.8756982,0.459417295 C12.5870594,0.193492179 12.0992597,0 11.7158511,0 L0.962129513,0 C0.431515087,0 0,0.454352054 0,1.01304806 L0,23.9864454 C0,24.5456479 0.431034022,25 0.962129513,25 Z M12.6683593,2.28898209 L15.4975011,4.90213956 L12.6678782,4.90213956 L12.6683593,2.28898209 Z M1.44319427,1.51957209 L11.224684,1.51957209 L11.224684,5.40866359 C11.224684,5.96735959 11.6561991,6.42171165 12.1868135,6.42171165 L16.5568057,6.42171165 L16.5568057,23.4804279 L1.44319427,23.4804279 L1.44319427,1.51957209 Z" id="Shape" fill="#FFFFFF" fill-rule="nonzero"></path>
                <path d="M12.1674936,14.1609096 L9.84043754,14.1609096 L9.84043754,11.8367507 C9.84043754,11.3746133 9.46527347,11 9.00264373,11 C8.54001399,11 8.16484991,11.3746133 8.16484991,11.8367507 L8.16484991,14.1609096 L5.83779381,14.1609096 C5.37516407,14.1609096 5,14.5355229 5,14.9976604 C5,15.4597978 5.37516407,15.8344111 5.83779381,15.8344111 L8.16484991,15.8344111 L8.16484991,18.15857 C8.16484991,18.6207074 8.54001399,18.9953207 9.00264373,18.9953207 C9.46527347,18.9953207 9.84043754,18.6207074 9.84043754,18.15857 L9.84043754,15.8344111 L12.1674936,15.8344111 C12.6301234,15.8344111 13.0052875,15.4597978 13.0052875,14.9976604 C13.0052875,14.5355229 12.6302072,14.1609096 12.1674936,14.1609096 Z" id="Shape" fill="#FFFFFF" fill-rule="nonzero"></path>
                <circle id="Oval-2" stroke="#FFFFFF" cx="9" cy="15" r="6"></circle>
            </g>
        </g>
    </g>
</svg>