
<svg width="50px" height="50px" viewBox="0 0 50 50" version="1.1" xmlns="http://www.w3.org/2000/svg" xmlns:xlink="http://www.w3.org/1999/xlink">
    <!-- Generator: Sketch 51.2 (57519) - http://www.bohemiancoding.com/sketch -->
    <desc>Created with Sketch.</desc>
    <defs></defs>
    <g id="Page-1" stroke="none" stroke-width="1" fill="none" fill-rule="evenodd">
        <g id="savefile">
            <circle id="Oval" fill="#4EAD19" fill-rule="nonzero" cx="25" cy="25" r="25"></circle>
            <g id="Oval" transform="translate(6.811659, 5.914798)" stroke="#FFFFFF">
                <circle cx="18.3236431" cy="18.4759548" r="17.896629"></circle>
            </g>
            <g id="save" transform="translate(15.000000, 15.000000)" fill="#FFFFFF" fill-rule="nonzero">
                <path d="M17.243625,0 L16.1875,0 L3.9375,0 L0,0 L0,21 L3.0625,21 L17.5,21 L21,21 L21,3.67971429 L17.243625,0 Z M15.3125,0.857142857 L15.3125,6.85714286 L4.8125,6.85714286 L4.8125,0.857142857 L15.3125,0.857142857 Z M3.9375,20.1428571 L3.9375,12 L16.625,12 L16.625,20.1428571 L3.9375,20.1428571 Z M20.125,20.1428571 L17.5,20.1428571 L17.5,11.1428571 L3.0625,11.1428571 L3.0625,20.1428571 L0.875,20.1428571 L0.875,0.857142857 L3.9375,0.857142857 L3.9375,7.71428571 L16.1875,7.71428571 L16.1875,0.857142857 L16.881375,0.857142857 L20.125,4.03457143 L20.125,20.1428571 Z" id="Shape" stroke="#FFFFFF" stroke-width="0.5"></path>
                <path d="M6.55555556,14 L10.4444444,14 C10.7516667,14 11,13.7765 11,13.5 C11,13.2235 10.7516667,13 10.4444444,13 L6.55555556,13 C6.24833333,13 6,13.2235 6,13.5 C6,13.7765 6.24833333,14 6.55555556,14 Z" id="Shape"></path>
                <path d="M10.5833333,15 L6.41666667,15 C6.18625,15 6,15.2235 6,15.5 C6,15.7765 6.18625,16 6.41666667,16 L10.5833333,16 C10.81375,16 11,15.7765 11,15.5 C11,15.2235 10.81375,15 10.5833333,15 Z" id="Shape"></path>
                <path d="M11.145,15.1396226 C11.0545,15.234717 11,15.3660377 11,15.4968553 C11,15.627673 11.0545,15.7584906 11.145,15.8540881 C11.2395,15.9446541 11.3645,16 11.5,16 C11.63,16 11.76,15.9446541 11.855,15.8540881 C11.945,15.7584906 12,15.627673 12,15.4968553 C12,15.3660377 11.945,15.234717 11.855,15.1396226 C11.67,14.9534591 11.33,14.9534591 11.145,15.1396226 Z" id="Shape"></path>
                <path d="M14,1 L10,1 L10,6 L14,6 L14,1 Z M12.6666667,5 L11.3333333,5 L11.3333333,2 L12.6666667,2 L12.6666667,5 Z" id="Shape"></path>
            </g>
        </g>
    </g>
</svg>