
<svg width="38px" height="38px" viewBox="0 0 38 38" version="1.1" xmlns="http://www.w3.org/2000/svg" xmlns:xlink="http://www.w3.org/1999/xlink">
    <!-- Generator: Sketch 51.2 (57519) - http://www.bohemiancoding.com/sketch -->
    <desc>Created with Sketch.</desc>
    <defs></defs>
    <g id="Page-1" stroke="none" stroke-width="1" fill="none" fill-rule="evenodd">
        <g id="m4" stroke="#000000">
            <g id="Oval" transform="translate(0.811659, 0.914798)">
                <circle cx="18.3236431" cy="18.4759548" r="17.896629"></circle>
            </g>
            <path d="M18.4945323,31.3427533 L9.197236,21.9601607 C8.7707545,21.5336792 9.0835076,20.8228767 9.6805817,20.8228767 L12.4953595,20.8228767 C12.8649767,20.8228767 13.1492977,20.5385557 13.1492977,20.1689385 L13.1492977,8.65393842 C13.1492977,8.28432112 13.4620508,8.00000012 13.803236,8.00000012 L24.0387916,8.00000012 C24.4084089,8.00000012 24.6927299,8.28432112 24.6927299,8.65393842 L24.6927299,20.1689385 C24.6927299,20.5385557 25.005483,20.8228767 25.3466682,20.8228767 L28.3320386,20.8228767 C28.9291127,20.8228767 29.2134336,21.5336792 28.8153843,21.9601607 L19.4327916,31.3427533 C19.1769027,31.5986422 18.7504212,31.5986422 18.4945323,31.3427533 Z" id="Shape" stroke-width="2" transform="translate(19.000000, 19.767335) scale(-1, 1) rotate(-180.000000) translate(-19.000000, -19.767335) "></path>
        </g>
    </g>
</svg>