
<svg width="38px" height="38px" viewBox="0 0 38 38" version="1.1" xmlns="http://www.w3.org/2000/svg" xmlns:xlink="http://www.w3.org/1999/xlink">
    <!-- Generator: Sketch 51.2 (57519) - http://www.bohemiancoding.com/sketch -->
    <desc>Created with Sketch.</desc>
    <defs></defs>
    <g id="Page-1" stroke="none" stroke-width="1" fill="none" fill-rule="evenodd">
        <g id="m7">
            <g id="Oval" transform="translate(0.811659, 0.914798)" stroke="#000000">
                <circle cx="18.3236431" cy="18.4759548" r="17.896629"></circle>
            </g>
            <g transform="translate(9.000000, 9.000000)" fill="#000000" fill-rule="nonzero" id="qr-code">
                <g transform="translate(0.200000, 0.600000)">
                    <path d="M2.47058824,7 L4.52941176,7 C5.89169412,7 7,5.89169412 7,4.52941176 L7,2.47058824 C7,1.10830588 5.89169412,0 4.52941176,0 L2.47058824,0 C1.10830588,0 0,1.10830588 0,2.47058824 L0,4.52941176 C0,5.89169412 1.10830588,7 2.47058824,7 Z M1.64705882,2.47058824 C1.64705882,2.01649412 2.01649412,1.64705882 2.47058824,1.64705882 L4.52941176,1.64705882 C4.98350588,1.64705882 5.35294118,2.01649412 5.35294118,2.47058824 L5.35294118,4.52941176 C5.35294118,4.98350588 4.98350588,5.35294118 4.52941176,5.35294118 L2.47058824,5.35294118 C2.01649412,5.35294118 1.64705882,4.98350588 1.64705882,4.52941176 L1.64705882,2.47058824 Z" id="Shape"></path>
                    <rect id="Rectangle-path" x="16.4" y="14.4" width="1.8" height="1.8"></rect>
                    <rect id="Rectangle-path" x="19" y="14.4" width="1.8" height="3.2"></rect>
                    <rect id="Rectangle-path" x="14.6" y="16" width="1.8" height="1.8"></rect>
                    <polygon id="Shape" points="11.6134454 20.8 11.6134454 19.2 13.1865546 19.2 13.1865546 20.8 14.8 20.8 14.8 19.2 13.2268908 19.2 13.2268908 17.6 10 17.6 10 20.8"></polygon>
                    <polygon id="Shape" points="18.0666667 20.8 18.0666667 19.2623377 19.4 19.2623377 19.4 17.6 16.4 17.6 16.4 20.8"></polygon>
                    <rect id="Rectangle-path" x="2.6" y="2.6" width="1.8" height="1.8"></rect>
                    <rect id="Rectangle-path" x="2.6" y="16.4" width="1.8" height="1.8"></rect>
                    <rect id="Rectangle-path" x="8.4" y="14.4" width="1.8" height="3.2"></rect>
                    <rect id="Rectangle-path" x="13" y="11.4" width="1.8" height="1.8"></rect>
                    <path d="M4.52941176,13.8 L2.47058824,13.8 C1.10830588,13.8 0,14.9083059 0,16.2705882 L0,18.3294118 C0,19.6916941 1.10830588,20.8 2.47058824,20.8 L4.52941176,20.8 C5.89169412,20.8 7,19.6916941 7,18.3294118 L7,16.2705882 C7,14.9083059 5.89169412,13.8 4.52941176,13.8 Z M5.35294118,18.3294118 C5.35294118,18.7835059 4.98350588,19.1529412 4.52941176,19.1529412 L2.47058824,19.1529412 C2.01649412,19.1529412 1.64705882,18.7835059 1.64705882,18.3294118 L1.64705882,16.2705882 C1.64705882,15.8164941 2.01649412,15.4470588 2.47058824,15.4470588 L4.52941176,15.4470588 C4.98350588,15.4470588 5.35294118,15.8164941 5.35294118,16.2705882 L5.35294118,18.3294118 Z" id="Shape"></path>
                    <polygon id="Shape" points="10 4.8 10 6.4 8.4 6.4 8.4 8 11.6 8 11.6 4.8"></polygon>
                    <rect id="Rectangle-path" x="10" y="0" width="1.8" height="1.8"></rect>
                    <rect id="Rectangle-path" x="11.4" y="3.2" width="1.8" height="1.8"></rect>
                    <path d="M19.1684211,8.2 L16.1907895,8.2 L16.1907895,9.81344538 L14.6,9.81344538 L14.6,11.4268908 L16.2315789,11.4268908 L16.2315789,13 L20.8,13 L20.8,9.77310924 L19.1684211,9.77310924 L19.1684211,8.2 Z M19.1684211,11.3865546 L16.2315789,11.3865546 L16.2315789,9.81344538 L19.1684211,9.81344538 L19.1684211,11.3865546 Z" id="Shape"></path>
                    <rect id="Rectangle-path" x="11.4" y="8.2" width="1.8" height="3.2"></rect>
                    <path d="M18.3294118,0 L16.2705882,0 C14.9083059,0 13.8,1.10830588 13.8,2.47058824 L13.8,4.52941176 C13.8,5.89169412 14.9083059,7 16.2705882,7 L18.3294118,7 C19.6916941,7 20.8,5.89169412 20.8,4.52941176 L20.8,2.47058824 C20.8,1.10830588 19.6916941,0 18.3294118,0 Z M19.1529412,4.52941176 C19.1529412,4.98350588 18.7835059,5.35294118 18.3294118,5.35294118 L16.2705882,5.35294118 C15.8164941,5.35294118 15.4470588,4.98350588 15.4470588,4.52941176 L15.4470588,2.47058824 C15.4470588,2.01649412 15.8164941,1.64705882 16.2705882,1.64705882 L18.3294118,1.64705882 C18.7835059,1.64705882 19.1529412,2.01649412 19.1529412,2.47058824 L19.1529412,4.52941176 Z" id="Shape"></path>
                    <rect id="Rectangle-path" x="16.4" y="2.6" width="1.8" height="1.8"></rect>
                    <rect id="Rectangle-path" x="1.8" y="8.2" width="1.8" height="1.8"></rect>
                    <rect id="Rectangle-path" x="0" y="9.8" width="1.8" height="3.2"></rect>
                    <polygon id="Shape" points="3.2 11.4 4.77974684 11.4 4.77974684 13 6.4 13 6.4 11.4 4.82025316 11.4 4.82025316 9.8 3.2 9.8"></polygon>
                    <rect id="Rectangle-path" x="8.4" y="1.8" width="1.8" height="3.2"></rect>
                    <polygon id="Shape" points="10.05 13.1417722 10.05 14.7708861 11.7 14.7708861 11.7 16.4 15 16.4 15 14.7291139 11.7 14.7291139 11.7 13.1 10.05 13.1 10.05 9.8 8.4 9.8 8.4 13.1417722"></polygon>
                    <rect id="Rectangle-path" x="4.8" y="8.2" width="3.2" height="1.8"></rect>
                </g>
            </g>
        </g>
    </g>
</svg>