<?xml version="1.0" encoding="iso-8859-1"?>
<!-- Generator: Adobe Illustrator 22.1.0, SVG Export Plug-In . SVG Version: 6.00 Build 0)  -->
<svg xmlns="http://www.w3.org/2000/svg" xmlns:xlink="http://www.w3.org/1999/xlink" version="1.1" id="Layer_1_1_" x="0px" y="0px" viewBox="0 0 64 64" style="enable-background:new 0 0 64 64;" xml:space="preserve" width="512" height="512">
<g>
	<g>
		<rect x="2" y="6" style="fill:#F0BC5E;" width="14" height="12"/>
	</g>
	<g>
		<path style="fill:#F0BC5E;" d="M18,46H6c-1.105,0-2,0.895-2,2v10h16V48C20,46.895,19.105,46,18,46z"/>
	</g>
	<g>
		<path style="fill:#F0BC5E;" d="M62,12H44V4c0-1.105,0.895-2,2-2h14c1.105,0,2,0.895,2,2V12z"/>
	</g>
	<g>
		<rect x="51" y="49" style="fill:#F0BC5E;" width="8" height="10"/>
	</g>
	<g>
		<path d="M4,27h4v5h9.689v-2H10v-3h4c1.654,0,3-1.346,3-3V4c0-1.654-1.346-3-3-3H4C2.346,1,1,2.346,1,4v20C1,25.654,2.346,27,4,27z     M14,25H4c-0.552,0-1-0.448-1-1v-5h12v5C15,24.552,14.552,25,14,25z M3,17V7h12v10H3z M4,3h10c0.552,0,1,0.448,1,1v1H3V4    C3,3.448,3.448,3,4,3z"/>
		<rect x="7" y="21" width="4" height="2"/>
		<path d="M60,1H46c-1.654,0-3,1.346-3,3v10c0,1.654,1.346,3,3,3h3v2h-2v2h5v10h-4.533v2H54V21h5v-2h-2v-2h3c1.654,0,3-1.346,3-3V4    C63,2.346,61.654,1,60,1z M46,3h14c0.552,0,1,0.448,1,1v7H45V4C45,3.448,45.448,3,46,3z M55,19h-4v-2h4V19z M60,15H46    c-0.552,0-1-0.448-1-1v-1h16v1C61,14.552,60.552,15,60,15z"/>
		<path d="M21,48c0-1.654-1.346-3-3-3h-6v-9h3v-2h-5v11H6c-1.654,0-3,1.346-3,3v9H1v3c0,1.654,1.346,3,3,3h16c1.654,0,3-1.346,3-3    v-3h-2V48z M5,48c0-0.552,0.448-1,1-1h12c0.552,0,1,0.448,1,1v9H5V48z M21,60c0,0.552-0.448,1-1,1H4c-0.552,0-1-0.448-1-1v-1h18    V60z"/>
		<rect x="51" y="49" width="2" height="2"/>
		<rect x="57" y="57" width="2" height="2"/>
		<rect x="55" y="49" width="4" height="2"/>
		<rect x="51" y="57" width="4" height="2"/>
		<path d="M56,35h-7v2h5v8h-7v18h16V45h-7V35z M49,61v-6h12v6H49z M61,53H49v-6h12V53z"/>
	</g>
	<g>
		<g>
			<path style="fill:#F0BC5E;" d="M43,43H21c-3.859,0-7-3.141-7-7c0-3.322,2.334-6.156,5.524-6.84C20.693,26.092,23.681,24,27,24     c1.126,0,2.236,0.24,3.262,0.701C31.719,22.424,34.263,21,37,21c4.411,0,8,3.589,8,8c0,0.098-0.002,0.196-0.007,0.297     C47.905,30.167,50,32.897,50,36C50,39.859,46.859,43,43,43z"/>
		</g>
	</g>
</g>
</svg>
